<svg width="19" height="21" viewBox="0 0 19 21" fill="none" xmlns="http://www.w3.org/2000/svg">
<path fill-rule="evenodd" clip-rule="evenodd" d="M18.4936 4.23864C18.3848 1.89119 16.4478 0.0219727 14.0734 0.0219727H9.18938L8.98056 0.0267975C6.62755 0.135758 4.75438 2.07656 4.75438 4.45597V5.38897H6.25438V4.45597L6.25936 4.28353C6.34859 2.74295 7.62564 1.52197 9.18938 1.52197H14.0734L14.2453 1.52694C15.781 1.61588 16.9984 2.88889 16.9984 4.44697V15.587L16.9934 15.7594C16.9041 17.3 15.6263 18.522 14.0634 18.522H9.17838L9.00661 18.517C7.47199 18.428 6.25438 17.1543 6.25438 15.597V14.655H4.75438V15.597L4.75949 15.8113C4.87131 18.1552 6.80715 20.022 9.17838 20.022H14.0634L14.2721 20.0171C16.6245 19.9081 18.4984 17.9662 18.4984 15.587V4.44697L18.4936 4.23864ZM9.35554 7.63719L10.414 6.57435L13.8756 10.0218L10.414 13.4692L9.35554 12.4064L10.9963 10.7718H0.771484V9.27177H10.9961L9.35554 7.63719Z" fill="black"/>
</svg>
